<svg width="20" height="20" viewBox="0 0 20 20" fill="none" xmlns="http://www.w3.org/2000/svg">
<path d="M6.66666 15L10 12.4584L13.3333 15L12.0833 10.875L15.4167 8.50002H11.3333L10 4.16669L8.66667 8.50002H4.58333L7.91666 10.875L6.66666 15ZM10 18.3334C8.84722 18.3334 7.76389 18.1146 6.75 17.6771C5.73611 17.2396 4.85416 16.6459 4.10416 15.8959C3.35416 15.1459 2.76041 14.2639 2.32291 13.25C1.88541 12.2361 1.66666 11.1528 1.66666 10C1.66666 8.84724 1.88541 7.76391 2.32291 6.75002C2.76041 5.73613 3.35416 4.85419 4.10416 4.10419C4.85416 3.35419 5.73611 2.76044 6.75 2.32294C7.76389 1.88544 8.84722 1.66669 10 1.66669C11.1528 1.66669 12.2361 1.88544 13.25 2.32294C14.2639 2.76044 15.1458 3.35419 15.8958 4.10419C16.6458 4.85419 17.2396 5.73613 17.6771 6.75002C18.1146 7.76391 18.3333 8.84724 18.3333 10C18.3333 11.1528 18.1146 12.2361 17.6771 13.25C17.2396 14.2639 16.6458 15.1459 15.8958 15.8959C15.1458 16.6459 14.2639 17.2396 13.25 17.6771C12.2361 18.1146 11.1528 18.3334 10 18.3334Z" fill="white"/>
</svg>
